<svg xmlns="http://www.w3.org/2000/svg" xmlns:xlink="http://www.w3.org/1999/xlink" version="1.1" x="0px" y="0px" viewBox="0 0 32 40" style="enable-background:new 0 0 32 32;" xml:space="preserve"><g><path d="M20.2,17.9L20.2,17.9l0-8.7c0-0.2-0.2-0.4-0.4-0.4H19V7.3h0.3c0.3,0,0.7-0.1,0.9-0.4c0.2-0.2,0.4-0.6,0.4-0.9   c0-0.7-0.6-1.3-1.3-1.3h-5.6c-0.7,0-1.3,0.6-1.3,1.3c0,0.7,0.6,1.3,1.3,1.3H14v1.5h-0.7c-0.2,0-0.4,0.2-0.4,0.4v8.7h0   c-0.7,0-1.2,0.5-1.2,1.2c0,0.5,0.4,1,0.9,1.1v0.1h-0.4c-0.4,0-0.8,0.2-1.1,0.5c-0.3,0.3-0.4,0.8-0.3,1.2l0.2,1.2   c0.1,0.4,0.3,0.8,0.7,1l0.9,0.5c0.2,1.4,1.4,2.5,2.9,2.5h2.2c1.6,0,2.9-1.3,2.9-2.9V23c0,0,0,0,0,0v-2.8c0.5-0.1,0.9-0.6,0.9-1.1   C21.4,18.4,20.8,17.9,20.2,17.9z M12.5,23.8L12.5,23.8L12,23.5c-0.2-0.1-0.3-0.2-0.3-0.4l-0.2-1.2c0-0.2,0-0.4,0.1-0.5   c0.1-0.1,0.3-0.2,0.5-0.2h0.4V23.8z M13.7,6.5c-0.3,0-0.5-0.2-0.5-0.5c0-0.3,0.2-0.5,0.5-0.5h5.6c0.3,0,0.5,0.2,0.5,0.5   c0,0.1,0,0.2-0.1,0.3c-0.1,0.1-0.2,0.1-0.3,0.1h-0.7h-4.2C14.4,6.5,13.7,6.5,13.7,6.5z M14.8,8.8V7.3h3.4v1.5H14.8z M18.2,9.6v6.9   h-3.4V9.6H18.2z M13.6,9.6L13.6,9.6H14v7.3c0,0.2,0.2,0.4,0.4,0.4h4.2c0.2,0,0.4-0.2,0.4-0.4V9.6h0.3v8.3h-5.7V9.6z M19.7,24.4   c0,1.1-0.9,2.1-2.1,2.1h-2.2c-1.1,0-2.1-0.9-2.1-2.1v-1.5c1.1,0.4,2.1,0.5,3,0.2c1.2-0.4,2.2-0.1,3.4,0.2V24.4z M19.7,22.4   c-1.2-0.4-2.3-0.6-3.6-0.2c-0.8,0.2-1.7,0.1-2.7-0.3v-1.7h6.4V22.4z M20.2,19.5h-7.4c-0.2,0-0.4-0.2-0.4-0.4c0-0.2,0.2-0.4,0.4-0.4   h0.4h6.5h0.4c0.2,0,0.4,0.2,0.4,0.4C20.5,19.3,20.4,19.5,20.2,19.5z"/><circle cx="15.1" cy="24.2" r="0.4"/><circle cx="16.3" cy="24.8" r="0.4"/><circle cx="15.1" cy="25.6" r="0.4"/><ellipse cx="16.5" cy="11.2" rx="0.4" ry="0.4"/><ellipse cx="16.5" cy="13.4" rx="0.4" ry="0.4"/><ellipse cx="16.5" cy="15.5" rx="0.4" ry="0.4"/></g><text x="0" y="47" fill="#000000" font-size="5px" font-weight="bold" font-family="'Helvetica Neue', Helvetica, Arial-Unicode, Arial, Sans-serif">Created by Rifaidi Akbar</text><text x="0" y="52" fill="#000000" font-size="5px" font-weight="bold" font-family="'Helvetica Neue', Helvetica, Arial-Unicode, Arial, Sans-serif">from the Noun Project</text></svg>