<svg xmlns="http://www.w3.org/2000/svg" xmlns:xlink="http://www.w3.org/1999/xlink" version="1.1" x="0px" y="0px" viewBox="0 0 32 40" style="enable-background:new 0 0 32 32;" xml:space="preserve"><path d="M21.9,8.1c-0.8-1-1.6-1.9-2.6-2.4c-1-0.6-2.1-0.9-3.2-0.9c0,0,0,0,0,0c-1.1,0-2.2,0.3-3.2,0.9c-1,0.6-1.9,1.4-2.6,2.4  C8.6,10.2,7.8,13,7.8,16s0.8,5.8,2.4,7.9c0.8,1,1.6,1.9,2.6,2.4c1,0.6,2.1,0.9,3.3,0.9h0l0,0l0,0c1.1,0,2.2-0.3,3.3-0.9  c1-0.6,1.9-1.4,2.6-2.4c1.5-2.1,2.4-4.9,2.4-7.9C24.2,13,23.4,10.2,21.9,8.1z M8.6,16c0-5.7,3.2-10.3,7.2-10.5c2,3.7,2,6.3,0.1,9.6  c-1.2,2.1-1.9,4-1.9,5.9c0,1.8,0.4,3.5,1.4,5.3C11.5,25.9,8.6,21.4,8.6,16z M16.2,26.5c-2.1-3.7-2-7,0.3-10.9  c1.1-1.9,1.6-3.6,1.6-5.3c0-1.4-0.5-2.9-1.4-4.7c3.8,0.5,6.7,5,6.7,10.4C23.4,21.7,20.2,26.3,16.2,26.5z"/><text x="0" y="47" fill="#000000" font-size="5px" font-weight="bold" font-family="'Helvetica Neue', Helvetica, Arial-Unicode, Arial, Sans-serif">Created by Rifaidi Akbar</text><text x="0" y="52" fill="#000000" font-size="5px" font-weight="bold" font-family="'Helvetica Neue', Helvetica, Arial-Unicode, Arial, Sans-serif">from the Noun Project</text></svg>