<svg xmlns="http://www.w3.org/2000/svg" viewBox="0 0 32 40" x="0px" y="0px"><path d="M16,2c-7.72,0-14,6.28-14,14s6.28,14,14,14,14-6.28,14-14S23.72,2,16,2Zm0,26c-6.617,0-12-5.383-12-12S9.383,4,16,4s12,5.383,12,12-5.383,12-12,12Zm5.707-7.707c.391,.391,.391,1.023,0,1.414-.195,.195-.451,.293-.707,.293s-.512-.098-.707-.293l-5-5c-.188-.188-.293-.442-.293-.707V8c0-.552,.447-1,1-1s1,.448,1,1v7.586l4.707,4.707Z"/><text x="0" y="47" fill="#000000" font-size="5px" font-weight="bold" font-family="'Helvetica Neue', Helvetica, Arial-Unicode, Arial, Sans-serif">Created by Fajriah Robiatul Adawiah</text><text x="0" y="52" fill="#000000" font-size="5px" font-weight="bold" font-family="'Helvetica Neue', Helvetica, Arial-Unicode, Arial, Sans-serif">from the Noun Project</text></svg>