<svg xmlns="http://www.w3.org/2000/svg" xmlns:xlink="http://www.w3.org/1999/xlink" version="1.1" x="0px" y="0px" viewBox="0 0 32 40" style="enable-background:new 0 0 32 32;" xml:space="preserve"><g><path d="M15.8,24.6h4.1c2.7,0,4.9-2.2,4.9-4.9V14c0-0.2-0.2-0.4-0.4-0.4H7.9c-1.1,0-2.1,0.9-2.1,2.1v1.8c0,1.6,1.3,2.8,2.8,2.8h2.2   C11.2,22.7,13.2,24.6,15.8,24.6z M24,14.3v5.3c0,2.3-1.8,4.1-4.1,4.1h-4.1c-2.2,0-4-1.7-4.1-3.9c0,0,0,0,0-0.1v-4.3v-1.2L24,14.3   L24,14.3z M6.7,17.4v-1.8c0-0.7,0.6-1.2,1.2-1.2h2.9v1.2v3.9H8.7C7.6,19.4,6.7,18.5,6.7,17.4z"/><path d="M25.7,25.1H9.9c-0.2,0-0.4,0.2-0.4,0.4c0,0.2,0.2,0.4,0.4,0.4h15.8c0.2,0,0.4-0.2,0.4-0.4C26.1,25.3,26,25.1,25.7,25.1z"/><path d="M22.9,26.5H12.7c-0.2,0-0.4,0.2-0.4,0.4c0,0.2,0.2,0.4,0.4,0.4h10.2c0.2,0,0.4-0.2,0.4-0.4C23.3,26.6,23.2,26.5,22.9,26.5z   "/><path d="M14.5,19.1c0,1.2,1.5,2.1,3.3,2.1c1.9,0,3.3-0.9,3.3-2.1S19.6,17,17.8,17C16,16.9,14.5,17.9,14.5,19.1L14.5,19.1L14.5,19.1   z M15.4,19.3c0.8-0.3,1.4-0.3,2.1,0.1c0.6,0.3,1.2,0.4,1.8,0.4c0.2,0,0.4,0,0.6-0.1c-0.4,0.3-1.2,0.6-2,0.6   C16.6,20.3,15.6,19.8,15.4,19.3z M20.3,18.8c-0.8,0.3-1.6,0.3-2.4-0.2c-0.7-0.3-1.3-0.4-2.1-0.3c0.4-0.3,1.2-0.6,2-0.6   C19.1,17.8,20,18.3,20.3,18.8z"/><path d="M16.5,12.6c0,0.2,0.2,0.4,0.4,0.4s0.4-0.2,0.4-0.4c0-0.5,0.2-0.7,0.5-1s0.7-0.7,0.7-1.5s-0.4-1.2-0.7-1.5   c-0.3-0.3-0.5-0.5-0.5-1s0.2-0.7,0.5-1s0.7-0.7,0.7-1.5c0-0.2-0.2-0.4-0.4-0.4s-0.4,0.2-0.4,0.4c0,0.5-0.2,0.7-0.5,1   s-0.7,0.7-0.7,1.5s0.4,1.2,0.7,1.5c0.3,0.3,0.5,0.5,0.5,1s-0.2,0.7-0.5,1C16.9,11.4,16.5,11.8,16.5,12.6z"/><path d="M14.4,12.6c0,0.2,0.2,0.4,0.4,0.4s0.4-0.2,0.4-0.4c0-0.3,0.1-0.4,0.2-0.5c0.2-0.2,0.4-0.5,0.4-1s-0.2-0.8-0.4-1   c-0.1-0.2-0.2-0.3-0.2-0.5s0.1-0.4,0.2-0.5c0.2-0.2,0.4-0.5,0.4-1c0-0.2-0.2-0.4-0.4-0.4S15,7.6,15,7.9c0,0.3-0.1,0.4-0.2,0.5   c-0.2,0.2-0.4,0.5-0.4,1s0.2,0.8,0.4,1c0.1,0.2,0.2,0.3,0.2,0.5s-0.1,0.4-0.2,0.5C14.6,11.8,14.4,12.1,14.4,12.6z"/><path d="M19.2,12.6c0,0.2,0.2,0.4,0.4,0.4c0.2,0,0.4-0.2,0.4-0.4c0-0.3,0.1-0.4,0.2-0.5c0.2-0.2,0.4-0.5,0.4-1s-0.2-0.8-0.4-1   C20.1,9.8,20,9.7,20,9.5s0.1-0.4,0.2-0.5c0.2-0.2,0.4-0.5,0.4-1c0-0.2-0.2-0.4-0.4-0.4c-0.2,0-0.4,0.2-0.4,0.4   c0,0.3-0.1,0.4-0.2,0.5c-0.2,0.2-0.4,0.5-0.4,1s0.2,0.8,0.4,1c0.1,0.2,0.2,0.3,0.2,0.5s-0.1,0.4-0.2,0.5   C19.4,11.8,19.2,12.1,19.2,12.6z"/></g><text x="0" y="47" fill="#000000" font-size="5px" font-weight="bold" font-family="'Helvetica Neue', Helvetica, Arial-Unicode, Arial, Sans-serif">Created by Rifaidi Akbar</text><text x="0" y="52" fill="#000000" font-size="5px" font-weight="bold" font-family="'Helvetica Neue', Helvetica, Arial-Unicode, Arial, Sans-serif">from the Noun Project</text></svg>