<svg xmlns="http://www.w3.org/2000/svg" xmlns:xlink="http://www.w3.org/1999/xlink" version="1.1" x="0px" y="0px" viewBox="0 0 32 40" style="enable-background:new 0 0 32 32;" xml:space="preserve"><g><path d="M26.7,11.8c0.2,0,0.4-0.2,0.4-0.4V5.1c0-0.2-0.2-0.4-0.4-0.4H8.5c-0.2,0-0.4,0.2-0.4,0.4v6.2c0,0.2,0.2,0.4,0.4,0.4h0.5   v2.3H6.4c-0.8,0-1.5,0.7-1.5,1.5s0.7,1.5,1.5,1.5h2.6v6.5H8.5c-0.2,0-0.4,0.2-0.4,0.4v2.9c0,0.2,0.2,0.4,0.4,0.4h18.2   c0.2,0,0.4-0.2,0.4-0.4V24c0-0.2-0.2-0.4-0.4-0.4h-0.5V11.8H26.7z M8.9,5.5h17.3v5.4h-0.5H12.2h-1.3H9.5H8.9V5.5z M20,13.6h-5v-1.8   h5V13.6z M17.1,17.5h0.8v0.4c0,0.2-0.2,0.4-0.4,0.4s-0.4-0.2-0.4-0.4L17.1,17.5L17.1,17.5z M18.3,16.7h-1.6h-1.4   c-0.4,0-0.7-0.3-0.7-0.7v-1.5c0,0,0,0,0,0h5.8c0,0,0,0,0,0v1.5c0,0.4-0.3,0.7-0.7,0.7H18.3z M11.3,11.8h0.5v1.4h-0.5V11.8z    M9.9,11.8h0.6v1.8c0,0.2,0.2,0.4,0.4,0.4h1.3c0.2,0,0.4-0.2,0.4-0.4v-1.8h1.5v1.8h-0.9c-0.2,0-0.4,0.2-0.4,0.4   c0,0.2,0.2,0.4,0.4,0.4h0.4v0.2h-2.8c-0.2-0.3-0.6-0.5-1-0.5h0L9.9,11.8L9.9,11.8z M11.2,15.4h2.5v0.4h-2.5V15.4z M5.7,15.6   c0-0.4,0.3-0.7,0.7-0.7h3.5c0.2,0,0.3,0.1,0.4,0.2v0.9c-0.1,0.1-0.2,0.2-0.4,0.2H6.4C6,16.3,5.7,16,5.7,15.6z M26.3,26.5H8.9v-2   h0.5h16.3h0.5L26.3,26.5L26.3,26.5z M25.3,23.6H9.9v-6.5h0c0.4,0,0.8-0.2,1-0.5h3c0.3,0.5,0.8,0.8,1.4,0.8h1v0.4   c0,0.7,0.5,1.2,1.2,1.2s1.2-0.5,1.2-1.2v-0.4h1c0.9,0,1.5-0.7,1.5-1.5v-1.5h0.4c0.2,0,0.4-0.2,0.4-0.4c0-0.2-0.2-0.4-0.4-0.4h-0.9   v-1.8h2.5v2.1h-0.2c-0.2,0-0.4,0.2-0.4,0.4v5.2c0,0.2,0.2,0.4,0.4,0.4h1.3c0.2,0,0.4-0.2,0.4-0.4v-5.2c0-0.2-0.2-0.4-0.4-0.4h-0.2   v-2.1h1.2L25.3,23.6L25.3,23.6z M24,14.7v4.4h-0.5v-4.4L24,14.7L24,14.7z"/><path d="M17.3,10.6c1.3,0,2.3-1,2.3-2.3c0-1.3-1-2.3-2.3-2.3c-1.3,0-2.3,1-2.3,2.3C15.1,9.6,16.1,10.6,17.3,10.6z M17.3,6.9   c0.8,0,1.4,0.6,1.4,1.4s-0.7,1.4-1.4,1.4c-0.8,0-1.4-0.6-1.4-1.4C15.9,7.5,16.5,6.9,17.3,6.9z"/><path d="M12.8,10c0.9,0,1.7-0.8,1.7-1.7c0-0.9-0.8-1.7-1.7-1.7c-0.9,0-1.7,0.8-1.7,1.7C11.2,9.2,11.9,10,12.8,10z M12.8,7.5   c0.5,0,0.9,0.4,0.9,0.9c0,0.5-0.4,0.9-0.9,0.9c-0.5,0-0.9-0.4-0.9-0.9C12,7.8,12.4,7.5,12.8,7.5z"/><path d="M21.8,10c0.9,0,1.7-0.8,1.7-1.7c0-0.9-0.8-1.7-1.7-1.7s-1.7,0.8-1.7,1.7C20.1,9.2,20.9,10,21.8,10z M21.8,7.5   c0.5,0,0.9,0.4,0.9,0.9c0,0.5-0.4,0.9-0.9,0.9S21,8.8,21,8.3S21.3,7.5,21.8,7.5z"/></g><text x="0" y="47" fill="#000000" font-size="5px" font-weight="bold" font-family="'Helvetica Neue', Helvetica, Arial-Unicode, Arial, Sans-serif">Created by Rifaidi Akbar</text><text x="0" y="52" fill="#000000" font-size="5px" font-weight="bold" font-family="'Helvetica Neue', Helvetica, Arial-Unicode, Arial, Sans-serif">from the Noun Project</text></svg>