<svg xmlns="http://www.w3.org/2000/svg" xmlns:xlink="http://www.w3.org/1999/xlink" version="1.1" x="0px" y="0px" viewBox="0 0 32 40" style="enable-background:new 0 0 32 32;" xml:space="preserve"><path d="M22.6,11.5c-0.1-0.1-0.2-0.2-0.4-0.2h-0.7c-0.1-0.8-0.6-1.5-1.4-2.1c-0.8-0.5-1.8-0.9-2.9-1V7.6c0.6-0.2,1-0.7,1-1.4  c0-0.8-0.7-1.5-1.5-1.5s-1.5,0.7-1.5,1.5c0,0.7,0.4,1.2,1,1.4v0.7c-1.1,0.1-2.2,0.4-3,1c-0.8,0.6-1.3,1.3-1.4,2.1h-0.7  c-0.1,0-0.3,0.1-0.4,0.2c-0.1,0.1-0.1,0.3,0,0.4l1,1.8c0,0,0,0.1,0.1,0.1v0.3c-0.1,0-0.3,0-0.4,0c-0.9-0.1-1.2,0-1.4,0.1  c-0.5,0.2-0.7,1.2-0.7,1.4c-0.2,1.9-0.3,5.2,0,7c0,0,0.2,1.1,0.8,1.4c0.1,0.1,0.3,0.1,0.9,0.1c0.1,0,0.3,0,0.5,0c0.1,0,0.3,0,0.4,0  v0.8c0,0.2,0.2,0.4,0.4,0.4H13l-0.6,1.4c-0.1,0.2,0,0.4,0.2,0.5c0.1,0,0.1,0,0.2,0c0.2,0,0.3-0.1,0.4-0.3l0.7-1.8h6l0.7,1.8  c0.1,0.2,0.2,0.3,0.4,0.3c0.1,0,0.1,0,0.2,0c0.2-0.1,0.3-0.3,0.2-0.5l-0.6-1.4h0.4c0.2,0,0.4-0.2,0.4-0.4V13.6l1-1.7  C22.7,11.8,22.7,11.7,22.6,11.5z M20.9,13.1h-8.4l-0.5-1h0.3c0,0,0,0,0,0h8.8c0,0,0,0,0,0h0.3L20.9,13.1z M16.2,6.2  c0-0.4,0.3-0.6,0.6-0.6c0.4,0,0.6,0.3,0.6,0.6c0,0.4-0.3,0.6-0.6,0.6C16.5,6.8,16.2,6.5,16.2,6.2z M13.9,9.9  c0.8-0.5,1.8-0.8,2.9-0.8c1.1,0,2.1,0.3,2.9,0.8c0.6,0.4,0.9,0.9,1.1,1.4h-7.9C13,10.8,13.3,10.3,13.9,9.9z M10.6,23.2  c-0.1-0.1-0.3-0.5-0.3-0.8c-0.3-1.8-0.2-4.9,0-6.8c0-0.2,0.2-0.6,0.3-0.7c0.2-0.1,0.8-0.1,1.4,0v8.3C11.4,23.3,10.8,23.3,10.6,23.2z   M12.8,13.9h3.6v8.8h-2.9c-0.2,0-0.4,0.2-0.4,0.4c0,0.2,0.2,0.4,0.4,0.4h6.7c0.2,0,0.4-0.2,0.4-0.4c0-0.2-0.2-0.4-0.4-0.4h-2.9v-8.8  h3.6v10.5h-0.6c0,0,0,0,0,0h-6.6c0,0,0,0,0,0h-0.8V13.9z"/><text x="0" y="47" fill="#000000" font-size="5px" font-weight="bold" font-family="'Helvetica Neue', Helvetica, Arial-Unicode, Arial, Sans-serif">Created by Rifaidi Akbar</text><text x="0" y="52" fill="#000000" font-size="5px" font-weight="bold" font-family="'Helvetica Neue', Helvetica, Arial-Unicode, Arial, Sans-serif">from the Noun Project</text></svg>