<svg xmlns="http://www.w3.org/2000/svg" xmlns:xlink="http://www.w3.org/1999/xlink" version="1.1" x="0px" y="0px" viewBox="0 0 32 40" style="enable-background:new 0 0 32 32;" xml:space="preserve"><g><path d="M11.4,25.8c0.6,0,1.1-0.5,1.1-1.1v-2c0-0.6-0.5-1.1-1.1-1.1c-0.6,0-1.1,0.5-1.1,1.1v2C10.3,25.4,10.8,25.8,11.4,25.8z    M11.1,22.8c0-0.1,0.1-0.2,0.2-0.2c0.1,0,0.2,0.1,0.2,0.2v2c0,0.1-0.1,0.2-0.2,0.2c-0.1,0-0.2-0.1-0.2-0.2V22.8z"/><path d="M22.3,4.7h-2.5c-0.6,0-1.2,0.5-1.2,1.2v0.7C18.6,6.8,18.7,7,19,7h0.7v1.5h-5.2c-0.1,0-0.2,0.1-0.3,0.1l-0.9,1.1h-0.8V9.1   c0-0.5-0.4-0.9-0.9-0.9h-0.4c-0.5,0-0.9,0.4-0.9,0.9V10c0,0,0,0.1,0,0.2s0,0.1,0,0.2v0.8H9.4c-0.5,0-0.9,0.4-0.9,0.9v6.6   c0,0.1,0.1,0.3,0.2,0.4v7.4c0,0.5,0.4,0.9,0.9,0.9h3.5c0.5,0,0.9-0.4,0.9-0.9V19c0.1-0.1,0.2-0.2,0.2-0.4V12c0-0.5-0.4-0.9-0.9-0.9   h-0.9v-0.6h1c0.1,0,0.2-0.1,0.3-0.1l0.9-1.1h7.3c0.2,0,0.4-0.2,0.4-0.4c0,0,0,0,0-0.1c0,0,0,0,0-0.1V7H23c0.2,0,0.4-0.2,0.4-0.4   V5.9C23.4,5.2,22.9,4.7,22.3,4.7z M11.2,9.1h0.4c0,0,0,0,0,0v0.6h-0.5L11.2,9.1C11.1,9.1,11.1,9.1,11.2,9.1z M13.2,26.4   C13.2,26.4,13.2,26.5,13.2,26.4l-3.6,0.1c0,0-0.1,0-0.1-0.1V19h3.7L13.2,26.4L13.2,26.4z M13.4,12v6.2H9.3V12c0,0,0-0.1,0.1-0.1   h1.3H12L13.4,12C13.4,11.9,13.4,12,13.4,12z M11.1,11.1v-0.5h0.5v0.5H11.1z M21.5,7v1.4h-1V7H21.5z M22.6,6.2h-3.2V5.9   c0-0.2,0.2-0.3,0.3-0.3h2.5c0.2,0,0.3,0.2,0.3,0.3L22.6,6.2L22.6,6.2z"/></g><text x="0" y="47" fill="#000000" font-size="5px" font-weight="bold" font-family="'Helvetica Neue', Helvetica, Arial-Unicode, Arial, Sans-serif">Created by Rifaidi Akbar</text><text x="0" y="52" fill="#000000" font-size="5px" font-weight="bold" font-family="'Helvetica Neue', Helvetica, Arial-Unicode, Arial, Sans-serif">from the Noun Project</text></svg>