<svg xmlns="http://www.w3.org/2000/svg" xmlns:xlink="http://www.w3.org/1999/xlink" version="1.1" x="0px" y="0px" viewBox="0 0 32 40" style="enable-background:new 0 0 32 32;" xml:space="preserve"><path d="M25.5,9.7L24.2,9c-0.1,0-0.1,0-0.2,0h-2.6l-6-1.5l0.3-2c0-0.2-0.1-0.4-0.3-0.5l-1-0.3c-0.1,0-0.2,0-0.2,0l-1,0.3  C13.1,5.1,13,5.3,13,5.5l0.3,2L6.9,9C6.7,9,6.6,9.1,6.5,9.2L6.2,9.4C6.1,9.5,6,9.7,6.1,9.9c0.1,0.2,0.2,0.3,0.4,0.4l0.3,0.1  c0.2,0.1,0.5,0.2,0.6,0.4l1.4,2.4l0.6,3.8c0,0.3,0.2,0.6,0.5,0.8v1.8c-0.2,0.1-0.3,0.3-0.3,0.5l-1,6.3c0,0.3,0,0.5,0.2,0.7  s0.4,0.3,0.7,0.3H12l0,0l0,0h4.2l0,0l0,0h2.9c0.3,0,0.5-0.1,0.7-0.3c0.2-0.2,0.2-0.5,0.2-0.7l-1-6.3c0-0.2-0.2-0.4-0.3-0.5v0v-1.7  c0.3-0.2,0.6-0.5,0.6-0.8l0.8-5.3l2-0.3c0.2,0,0.4,0,0.5,0.2c0.1,0.1,0.2,0.3,0.1,0.5l-1.1,4.4c0,0.1-0.1,0.2-0.2,0.2l-0.8,0.1  c-0.2,0-0.3,0.2-0.4,0.3l-0.2,1.2c0,0.1,0,0.2,0.1,0.3c0.1,0.1,0.2,0.1,0.3,0.1c0,0,0,0,0,0l1.5-0.1c0.6-0.1,1.1-0.5,1.4-1l2.6-7.1  C25.9,10.2,25.8,9.8,25.5,9.7z M14.4,5.6l0.5,0.2l-0.3,1.6h-0.5l-0.3-1.6L14.4,5.6z M14,8.1h0.8L18,9h-7.5L14,8.1z M17.8,19.4h-7.2  v-1.5h7.2V19.4z M15.3,20.2l0.4,6.3h-3.4l0.4-6.3H15.3z M13.2,17L13,9.8h2.8L15.4,17H13.2z M8.1,10.3c-0.1-0.2-0.3-0.4-0.6-0.6h0.8  L8.5,11L8.1,10.3z M9.6,12.9L9.6,12.9L9.1,9.8h0.2h2.9l0.2,7.3h-2c-0.1,0-0.3-0.1-0.3-0.2L9.6,12.9z M9.3,26.4  C9.3,26.4,9.3,26.4,9.3,26.4l1-6.3h0.3H12l-0.4,6.3L9.3,26.4C9.3,26.5,9.3,26.5,9.3,26.4z M19.2,26.4C19.2,26.4,19.2,26.4,19.2,26.4  C19.1,26.5,19.1,26.5,19.2,26.4l-2.6,0.1l-0.4-6.3h1.8h0.2L19.2,26.4z M18.5,16.8c0,0.1-0.1,0.2-0.3,0.2h-1.9l0.4-7.3h2.9L18.5,16.8  z M22.5,17.2c-0.1,0.3-0.4,0.5-0.7,0.5l-1,0.1l0.1-0.3l0.5,0c0.4,0,0.8-0.4,0.9-0.8l1.1-4.4c0.1-0.5,0-0.9-0.3-1.3s-0.8-0.5-1.2-0.4  l-1.7,0.3l0.2-1h1h0h2.6l1.1,0.6L22.5,17.2z"/><text x="0" y="47" fill="#000000" font-size="5px" font-weight="bold" font-family="'Helvetica Neue', Helvetica, Arial-Unicode, Arial, Sans-serif">Created by Rifaidi Akbar</text><text x="0" y="52" fill="#000000" font-size="5px" font-weight="bold" font-family="'Helvetica Neue', Helvetica, Arial-Unicode, Arial, Sans-serif">from the Noun Project</text></svg>