<svg xmlns="http://www.w3.org/2000/svg" xmlns:xlink="http://www.w3.org/1999/xlink" version="1.1" x="0px" y="0px" viewBox="0 0 32 40" style="enable-background:new 0 0 32 32;" xml:space="preserve"><g><path d="M21.8,6.7l-1.4-1.8c-0.1-0.1-0.2-0.2-0.4-0.2h-8c-0.2,0-0.3,0.1-0.4,0.2l-1.4,1.8C9.4,6.9,8.8,7.6,8.8,8.5v1.7   c0,0.3,0.2,0.5,0.5,0.5h0.1l0.4,3.3c-0.1,0-0.2,0.1-0.3,0.2c-0.1,0.1-0.1,0.2-0.1,0.4l0.6,6.6c0,0.3,0.2,0.4,0.5,0.4h0.4l0.7,5.3   c0,0.2,0.2,0.4,0.5,0.4h8.3c0.2,0,0.5-0.2,0.5-0.4l0.7-5.3h0.4c0.3,0,0.5-0.2,0.5-0.4l0.6-6.6c0-0.1,0-0.3-0.1-0.4   c-0.1-0.1-0.2-0.2-0.3-0.2l0.4-3.3h0.1c0.3,0,0.5-0.2,0.5-0.5V8.5C23.3,7.6,22.7,6.9,21.8,6.7z M12.3,5.7h7.5l0.8,1h-9.1L12.3,5.7z    M9.7,8.5c0-0.4,0.3-0.8,0.8-0.8h0h11h0c0.4,0,0.8,0.3,0.8,0.8v1.2h-0.1H9.8H9.7L9.7,8.5L9.7,8.5z M19.7,26.3h-7.4l-0.6-4.8h8.6   L19.7,26.3z M21.2,20.6h-0.3h-9.7h-0.3l-0.5-5.6h11.3L21.2,20.6z M21.3,13.9H10.8l-0.4-3.3h11.3L21.3,13.9z"/><path d="M12.4,17.7c0,1.3,1.6,2.3,3.6,2.3c2,0,3.6-1,3.6-2.3c0-1.3-1.6-2.3-3.6-2.3S12.4,16.4,12.4,17.7L12.4,17.7   C12.4,17.7,12.4,17.7,12.4,17.7z M13.5,18c0.8-0.3,1.4-0.3,2.2,0.1c0.7,0.3,1.3,0.5,1.9,0.5c0.2,0,0.3,0,0.5,0   c-0.5,0.3-1.2,0.5-2,0.5C14.7,19.1,13.7,18.6,13.5,18z M18.6,17.4c-0.9,0.3-1.6,0.3-2.5-0.2c-0.7-0.3-1.4-0.5-2.1-0.4   c0.5-0.3,1.2-0.5,2-0.5C17.4,16.4,18.4,16.9,18.6,17.4z"/></g><text x="0" y="47" fill="#000000" font-size="5px" font-weight="bold" font-family="'Helvetica Neue', Helvetica, Arial-Unicode, Arial, Sans-serif">Created by Rifaidi Akbar</text><text x="0" y="52" fill="#000000" font-size="5px" font-weight="bold" font-family="'Helvetica Neue', Helvetica, Arial-Unicode, Arial, Sans-serif">from the Noun Project</text></svg>