<svg xmlns="http://www.w3.org/2000/svg" xmlns:xlink="http://www.w3.org/1999/xlink" version="1.1" x="0px" y="0px" viewBox="0 0 32 40" style="enable-background:new 0 0 32 32;" xml:space="preserve"><path d="M24.1,20.7h-3.9l6-12.6c0.1-0.1,0.1-0.3,0-0.4c-0.1-0.1-0.2-0.2-0.3-0.2H8.2C8,7.6,7.9,7.6,7.8,7.8C7.7,7.9,7.7,8,7.8,8.2  l1,2c-0.2,0-0.4-0.1-0.6-0.1c-1.9,0-3.4,1.5-3.4,3.4S6.3,17,8.2,17c0.8,0,1.6-0.3,2.2-0.8c0.3-0.3,0.6-0.6,0.8-1l2.6,5.5H9.9  c-1.8,0-3.2,1.4-3.2,3.2c0,0.2,0.2,0.4,0.4,0.4h19.8c0.2,0,0.4-0.2,0.4-0.4C27.3,22.2,25.9,20.7,24.1,20.7z M19.3,20.7h-0.5L23,8.4  h2.2L19.3,20.7z M17.4,20.7V8.4h4.7l-4.1,12.3H17.4z M15.8,20.7L11.7,8.4h4.9v12.3H15.8z M8.2,16.2c-1.4,0-2.6-1.2-2.6-2.6  c0-1.4,1.2-2.6,2.6-2.6c0.4,0,0.7,0.1,1.1,0.2l0.7,1.4l0.8,1.7C10.4,15.4,9.3,16.2,8.2,16.2z M11.5,14C11.5,14,11.5,14,11.5,14  l-0.9-1.8L8.8,8.4h2L15,20.7h-0.3L11.5,14z M7.5,23.5c0.2-1.1,1.2-2,2.4-2h4.5h1.1l0,0l0,0h2.7l0,0l0,0h1.3h4.5c1.2,0,2.2,0.9,2.4,2  H7.5z"/><text x="0" y="47" fill="#000000" font-size="5px" font-weight="bold" font-family="'Helvetica Neue', Helvetica, Arial-Unicode, Arial, Sans-serif">Created by Rifaidi Akbar</text><text x="0" y="52" fill="#000000" font-size="5px" font-weight="bold" font-family="'Helvetica Neue', Helvetica, Arial-Unicode, Arial, Sans-serif">from the Noun Project</text></svg>