<svg xmlns="http://www.w3.org/2000/svg" xmlns:xlink="http://www.w3.org/1999/xlink" version="1.1" x="0px" y="0px" viewBox="0 0 32 40" style="enable-background:new 0 0 32 32;" xml:space="preserve"><path d="M26.9,11.7c0,0-1.1,0.1-2.1,0.8c-0.6,0.4-1.1,1-1.5,1.7c-0.4,0.8-0.7,1.9-0.7,3.1c-0.1,1.8-0.5,3-1.3,3.7  c-0.4,0.4-0.8,0.5-1.1,0.5l-1.5-9.2c0-0.1,0-0.1-0.1-0.2c0-0.1,0-0.1,0-0.2l0-0.1c-0.1-0.7-0.7-1.5-1.5-1.5h-1V9.6h0.4  c0.2,0,0.4-0.2,0.4-0.4V8.7c0-0.6-0.5-1.5-1.3-1.5h-1.4c-0.8,0-1.3,0.9-1.3,1.5v0.4c0,0.2,0.2,0.4,0.4,0.4h0.4v0.7h-1.1  c-0.8,0-1.4,0.8-1.5,1.5l0,0.1c0,0.1,0,0.1,0,0.2c0,0,0,0.1,0,0.1l-0.6-0.3c-0.7-0.4-1.5-0.5-2.2-0.2S6.8,12.3,6.4,13l-1.6,3.1  c-0.2,0.5-0.1,1.1,0.4,1.3c0.2,0.1,0.3,0.1,0.5,0.1c0.1,0,0.2,0,0.3,0c0.3-0.1,0.5-0.3,0.6-0.5l1-2c0.3-0.5,0.7-0.9,1.2-1  c0.5-0.2,1.1-0.1,1.6,0.2l0.1,0l-1.4,8.2c-0.1,0.6,0.1,1.2,0.5,1.7c0.4,0.5,1,0.7,1.6,0.7h7.1c0.6,0,1.2-0.3,1.6-0.7  c0.4-0.5,0.6-1.1,0.5-1.7l0-0.1c0.4-0.1,1-0.2,1.5-0.7c1-0.8,1.5-2.3,1.6-4.3c0.1-1.9,0.7-3.3,1.8-4.1c0.9-0.6,1.7-0.7,1.7-0.7  c0.2,0,0.4-0.2,0.4-0.4C27.3,11.9,27.1,11.7,26.9,11.7z M13.7,8.7C13.7,8.4,14,8,14.1,8h1.4C15.7,8,16,8.4,16,8.7v0h-0.4h-1.5  L13.7,8.7L13.7,8.7L13.7,8.7z M15.2,9.6v0.7h-0.7V9.6H15.2z M12.5,11H17c0.3,0,0.6,0.3,0.7,0.7h-5.8C12,11.4,12.3,11,12.5,11z   M8.7,13.3c-0.8,0.2-1.4,0.7-1.7,1.4l-1,2c0,0.1-0.1,0.1-0.1,0.1c0,0-0.1,0-0.1,0c-0.1,0-0.1-0.2-0.1-0.2l1.6-3.1  c0.3-0.5,0.7-0.9,1.2-1c0.2-0.1,0.4-0.1,0.6-0.1c0.3,0,0.7,0.1,1,0.3l0.8,0.4l-0.1,0.4C10.1,13.1,9.4,13,8.7,13.3z M19.2,23.5  C19,23.8,18.7,24,18.3,24h-7.1c-0.4,0-0.7-0.2-0.9-0.4c-0.2-0.3-0.3-0.6-0.3-1l1.7-10h6.1l1.7,10C19.6,22.9,19.5,23.3,19.2,23.5z"/><text x="0" y="47" fill="#000000" font-size="5px" font-weight="bold" font-family="'Helvetica Neue', Helvetica, Arial-Unicode, Arial, Sans-serif">Created by Rifaidi Akbar</text><text x="0" y="52" fill="#000000" font-size="5px" font-weight="bold" font-family="'Helvetica Neue', Helvetica, Arial-Unicode, Arial, Sans-serif">from the Noun Project</text></svg>